<svg xmlns="http://www.w3.org/2000/svg" width="100%" viewBox="0 0 680 420" role="img">
<title>Project results vs paper baselines</title>
<desc>Bar chart comparing this project's accuracy to Codex paper baselines across datasets</desc>
<rect width="100%" height="100%" fill="white"/>
<text x="340" y="26" text-anchor="middle" font-family="Arial,sans-serif" font-size="14" font-weight="500" fill="#222">Project results vs paper baselines (Codex)</text>
<line x1="55" y1="330.0" x2="660" y2="330.0" stroke="#e0e0e0" stroke-width="0.5"/>
<text x="49" y="334.0" text-anchor="end" font-family="Arial,sans-serif" font-size="10" fill="#555">0</text>
<line x1="55" y1="274.8" x2="660" y2="274.8" stroke="#e0e0e0" stroke-width="0.5"/>
<text x="49" y="278.8" text-anchor="end" font-family="Arial,sans-serif" font-size="10" fill="#555">20</text>
<line x1="55" y1="219.5" x2="660" y2="219.5" stroke="#e0e0e0" stroke-width="0.5"/>
<text x="49" y="223.5" text-anchor="end" font-family="Arial,sans-serif" font-size="10" fill="#555">40</text>
<line x1="55" y1="164.3" x2="660" y2="164.3" stroke="#e0e0e0" stroke-width="0.5"/>
<text x="49" y="168.3" text-anchor="end" font-family="Arial,sans-serif" font-size="10" fill="#555">60</text>
<line x1="55" y1="109.0" x2="660" y2="109.0" stroke="#e0e0e0" stroke-width="0.5"/>
<text x="49" y="113.0" text-anchor="end" font-family="Arial,sans-serif" font-size="10" fill="#555">80</text>
<line x1="55" y1="53.8" x2="660" y2="53.8" stroke="#e0e0e0" stroke-width="0.5"/>
<text x="49" y="57.8" text-anchor="end" font-family="Arial,sans-serif" font-size="10" fill="#555">100</text>
<line x1="55" y1="40" x2="55" y2="330" stroke="#333" stroke-width="0.8"/>
<line x1="55" y1="330" x2="660" y2="330" stroke="#333" stroke-width="0.8"/>
<text x="14" y="185" text-anchor="middle" font-family="Arial,sans-serif" font-size="11" fill="#555" transform="rotate(-90 14 185)">Accuracy (%)</text>
<rect x="460" y="12" width="12" height="12" rx="2" fill="#2f7f6f"/>
<text x="476" y="22" font-family="Arial,sans-serif" font-size="11" fill="#333">This project</text>
<rect x="560" y="12" width="12" height="12" rx="2" fill="#d08a35"/>
<text x="576" y="22" font-family="Arial,sans-serif" font-size="11" fill="#333">Paper (Codex)</text>
<rect x="69.6" y="92.5" width="22.0" height="237.5" fill="#2f7f6f" rx="2"/>
<text x="80.6" y="88.5" text-anchor="middle" font-family="Arial,sans-serif" font-size="9" fill="#2f7f6f" font-weight="500">86</text>
<rect x="104.8" y="218.1" width="22.0" height="111.9" fill="#d08a35" rx="2"/>
<text x="115.8" y="214.1" text-anchor="middle" font-family="Arial,sans-serif" font-size="9" fill="#d08a35" font-weight="500">40</text>
<text x="98.2" y="346" text-anchor="middle" font-family="Arial,sans-serif" font-size="9" fill="#333">GSM8K</text>
<text x="98.2" y="358" text-anchor="middle" font-family="Arial,sans-serif" font-size="8" fill="#666">CoT zero-shot</text>
<rect x="156.0" y="98.0" width="22.0" height="232.0" fill="#2f7f6f" rx="2"/>
<text x="167.0" y="94.0" text-anchor="middle" font-family="Arial,sans-serif" font-size="9" fill="#2f7f6f" font-weight="500">84</text>
<rect x="191.2" y="155.7" width="22.0" height="174.3" fill="#d08a35" rx="2"/>
<text x="202.2" y="151.7" text-anchor="middle" font-family="Arial,sans-serif" font-size="9" fill="#d08a35" font-weight="500">63</text>
<text x="184.6" y="346" text-anchor="middle" font-family="Arial,sans-serif" font-size="9" fill="#333">GSM8K</text>
<text x="184.6" y="358" text-anchor="middle" font-family="Arial,sans-serif" font-size="8" fill="#666">CoT few-shot</text>
<rect x="242.5" y="103.5" width="22.0" height="226.5" fill="#2f7f6f" rx="2"/>
<text x="253.5" y="99.5" text-anchor="middle" font-family="Arial,sans-serif" font-size="9" fill="#2f7f6f" font-weight="500">82</text>
<rect x="277.7" y="172.6" width="22.0" height="157.4" fill="#d08a35" rx="2"/>
<text x="288.7" y="168.6" text-anchor="middle" font-family="Arial,sans-serif" font-size="9" fill="#d08a35" font-weight="500">57</text>
<text x="271.1" y="346" text-anchor="middle" font-family="Arial,sans-serif" font-size="9" fill="#333">GSM8K</text>
<text x="271.1" y="358" text-anchor="middle" font-family="Arial,sans-serif" font-size="8" fill="#666">PoT zero-shot</text>
<rect x="328.9" y="156.0" width="22.0" height="174.0" fill="#2f7f6f" rx="2"/>
<text x="339.9" y="152.0" text-anchor="middle" font-family="Arial,sans-serif" font-size="9" fill="#2f7f6f" font-weight="500">63</text>
<rect x="364.1" y="132.2" width="22.0" height="197.8" fill="#d08a35" rx="2"/>
<text x="375.1" y="128.2" text-anchor="middle" font-family="Arial,sans-serif" font-size="9" fill="#d08a35" font-weight="500">72</text>
<text x="357.5" y="346" text-anchor="middle" font-family="Arial,sans-serif" font-size="9" fill="#333">GSM8K</text>
<text x="357.5" y="358" text-anchor="middle" font-family="Arial,sans-serif" font-size="8" fill="#666">PoT few-shot</text>
<rect x="415.3" y="94.4" width="22.0" height="235.6" fill="#2f7f6f" rx="2"/>
<text x="426.3" y="90.4" text-anchor="middle" font-family="Arial,sans-serif" font-size="9" fill="#2f7f6f" font-weight="500">85</text>
<rect x="450.5" y="134.5" width="22.0" height="195.5" fill="#d08a35" rx="2"/>
<text x="461.5" y="130.5" text-anchor="middle" font-family="Arial,sans-serif" font-size="9" fill="#d08a35" font-weight="500">71</text>
<text x="443.9" y="346" text-anchor="middle" font-family="Arial,sans-serif" font-size="9" fill="#333">SVAMP</text>
<text x="443.9" y="358" text-anchor="middle" font-family="Arial,sans-serif" font-size="8" fill="#666">PoT zero-shot</text>
<rect x="501.8" y="236.1" width="22.0" height="93.9" fill="#2f7f6f" rx="2"/>
<text x="512.8" y="232.1" text-anchor="middle" font-family="Arial,sans-serif" font-size="9" fill="#2f7f6f" font-weight="500">34</text>
<rect x="537.0" y="180.6" width="22.0" height="149.4" fill="#d08a35" rx="2"/>
<text x="548.0" y="176.6" text-anchor="middle" font-family="Arial,sans-serif" font-size="9" fill="#d08a35" font-weight="500">54</text>
<text x="530.4" y="346" text-anchor="middle" font-family="Arial,sans-serif" font-size="9" fill="#333">AQuA</text>
<text x="530.4" y="358" text-anchor="middle" font-family="Arial,sans-serif" font-size="8" fill="#666">PoT few-shot</text>
<rect x="588.2" y="53.8" width="22.0" height="276.2" fill="#2f7f6f" rx="2"/>
<text x="599.2" y="49.8" text-anchor="middle" font-family="Arial,sans-serif" font-size="9" fill="#2f7f6f" font-weight="500">100</text>
<rect x="623.4" y="75.4" width="22.0" height="254.6" fill="#d08a35" rx="2"/>
<text x="634.4" y="71.4" text-anchor="middle" font-family="Arial,sans-serif" font-size="9" fill="#d08a35" font-weight="500">92</text>
<text x="616.8" y="346" text-anchor="middle" font-family="Arial,sans-serif" font-size="9" fill="#333">MultiArith</text>
<text x="616.8" y="358" text-anchor="middle" font-family="Arial,sans-serif" font-size="8" fill="#666">PoT zero-shot</text>
</svg>