<svg xmlns="http://www.w3.org/2000/svg" width="900" height="540" viewBox="0 0 900 540"><rect width="100%" height="100%" fill="white"/>
<text x="450.0" y="28.0" text-anchor="middle" font-family="Arial, sans-serif" font-size="18" font-weight="700" fill="#222">Cumulative Accuracy Stability</text>
<line x1="80" y1="415.0" x2="750" y2="415.0" stroke="#ddd"/>
<text x="70.0" y="419.0" text-anchor="end" font-family="Arial, sans-serif" font-size="10" font-weight="400" fill="#222">0</text>
<line x1="80" y1="346.4" x2="750" y2="346.4" stroke="#ddd"/>
<text x="70.0" y="350.4" text-anchor="end" font-family="Arial, sans-serif" font-size="10" font-weight="400" fill="#222">20</text>
<line x1="80" y1="277.9" x2="750" y2="277.9" stroke="#ddd"/>
<text x="70.0" y="281.9" text-anchor="end" font-family="Arial, sans-serif" font-size="10" font-weight="400" fill="#222">40</text>
<line x1="80" y1="209.3" x2="750" y2="209.3" stroke="#ddd"/>
<text x="70.0" y="213.3" text-anchor="end" font-family="Arial, sans-serif" font-size="10" font-weight="400" fill="#222">60</text>
<line x1="80" y1="140.7" x2="750" y2="140.7" stroke="#ddd"/>
<text x="70.0" y="144.7" text-anchor="end" font-family="Arial, sans-serif" font-size="10" font-weight="400" fill="#222">80</text>
<line x1="80" y1="72.1" x2="750" y2="72.1" stroke="#ddd"/>
<text x="70.0" y="76.1" text-anchor="end" font-family="Arial, sans-serif" font-size="10" font-weight="400" fill="#222">100</text>
<line x1="80" y1="55" x2="80" y2="415" stroke="#333"/>
<line x1="80" y1="415" x2="750" y2="415" stroke="#333"/>
<text x="18.0" y="235.0" text-anchor="middle" font-family="Arial, sans-serif" font-size="12" font-weight="400" fill="#222" transform="rotate(-90 18 235.0)">Accuracy (%)</text>
<polyline points="80.0,72.1 86.8,72.1 93.5,72.1 100.3,72.1 107.1,72.1 113.8,72.1 120.6,72.1 127.4,115.0 134.1,148.3 140.9,140.7 147.7,134.5 154.4,129.3 161.2,151.3 168.0,170.1 174.7,163.6 181.5,157.9 188.3,152.8 195.1,148.3 201.8,144.3 208.6,140.7 215.4,137.4 222.1,134.5 228.9,131.8 235.7,129.3 242.4,127.0 249.2,124.9 256.0,122.9 262.7,121.1 269.5,131.3 276.3,129.3 283.0,127.4 289.8,125.7 296.6,124.1 303.3,122.6 310.1,121.1 316.9,129.3 323.6,127.7 330.4,135.3 337.2,133.7 343.9,132.1 350.7,130.7 357.5,129.3 364.2,128.0 371.0,134.5 377.8,133.1 384.5,131.8 391.3,137.8 398.1,136.4 404.8,135.1 411.6,133.9 418.4,132.6 425.2,131.5 431.9,130.4 438.7,129.3 445.5,128.2 452.2,127.2 459.0,126.3 465.8,125.3 472.5,130.3 479.3,129.3 486.1,128.3 492.8,127.4 499.6,132.0 506.4,131.1 513.1,130.2 519.9,134.5 526.7,133.6 533.4,132.6 540.2,131.8 547.0,130.9 553.7,130.1 560.5,129.3 567.3,128.5 574.0,127.7 580.8,127.0 587.6,130.8 594.3,130.0 601.1,129.3 607.9,128.6 614.6,127.9 621.4,127.2 628.2,126.5 634.9,125.8 641.7,125.2 648.5,124.6 655.3,124.0 662.0,123.4 668.8,126.7 675.6,126.1 682.3,129.3 689.1,128.7 695.9,128.0 702.6,127.4 709.4,130.5 716.2,129.9 722.9,129.3 729.7,128.7 736.5,128.1 743.2,127.6 750.0,127.0" fill="none" stroke="#88a758" stroke-width="2.5"/>
<rect x="770.0" y="70.0" width="14.0" height="14.0" fill="#88a758"/>
<text x="790.0" y="82.0" text-anchor="start" font-family="Arial, sans-serif" font-size="10" font-weight="400" fill="#222">CoT few-shot llama-3.1-8b-instant n=100</text>
<polyline points="80.0,72.1 86.8,72.1 93.5,186.4 100.3,157.9 107.1,140.7 113.8,129.3 120.6,121.1 127.4,157.9 134.1,186.4 140.9,175.0 147.7,165.6 154.4,157.9 161.2,177.6 168.0,170.1 174.7,163.6 181.5,179.3 188.3,173.0 195.1,167.4 201.8,162.4 208.6,157.9 215.4,170.1 222.1,165.6 228.9,161.6 235.7,157.9 242.4,154.4 249.2,151.3 256.0,148.3 262.7,145.6 269.5,143.1 276.3,140.7 283.0,138.5 289.8,136.4 296.6,134.5 303.3,132.6 310.1,130.9 316.9,129.3 323.6,127.7 330.4,126.3 337.2,124.9 343.9,123.6 350.7,122.3 357.5,121.1 364.2,120.0 371.0,126.7 377.8,125.5 384.5,124.3 391.3,130.5 398.1,129.3 404.8,128.1 411.6,127.0 418.4,125.9 425.2,124.9 431.9,123.9 438.7,122.9 445.5,122.0 452.2,121.1 459.0,120.3 465.8,119.4 472.5,118.6 479.3,117.9 486.1,117.1 492.8,116.4 499.6,121.1 506.4,120.4 513.1,119.6 519.9,118.9 526.7,118.2 533.4,117.5 540.2,116.9 547.0,116.2 553.7,115.6 560.5,115.0 567.3,114.4 574.0,118.5 580.8,117.9 587.6,121.8 594.3,121.1 601.1,120.5 607.9,119.9 614.6,119.3 621.4,118.7 628.2,118.1 634.9,117.6 641.7,117.0 648.5,116.5 655.3,116.0 662.0,115.5 668.8,118.9 675.6,118.4 682.3,121.7 689.1,121.1 695.9,120.6 702.6,120.1 709.4,123.2 716.2,122.7 722.9,122.1 729.7,121.6 736.5,121.1 743.2,120.6 750.0,120.1" fill="none" stroke="#5b7db1" stroke-width="2.5"/>
<rect x="770.0" y="95.0" width="14.0" height="14.0" fill="#5b7db1"/>
<text x="790.0" y="107.0" text-anchor="start" font-family="Arial, sans-serif" font-size="10" font-weight="400" fill="#222">CoT zero-shot llama-3.1-8b-instant n=100</text>
<polyline points="80.0,72.1 86.8,72.1 93.5,72.1 100.3,72.1 107.1,72.1 113.8,72.1 120.6,72.1 127.4,72.1 134.1,72.1 140.9,72.1 147.7,72.1 154.4,72.1 161.2,98.5 168.0,96.6 174.7,95.0 181.5,93.6 188.3,92.3 195.1,91.2 201.8,90.2 208.6,89.3 215.4,88.5 222.1,87.7 228.9,87.0 235.7,86.4 242.4,85.9 249.2,85.3 256.0,84.8 262.7,84.4 269.5,84.0 276.3,83.6 283.0,83.2 289.8,82.9 296.6,82.5 303.3,82.2 310.1,81.9 316.9,81.7 323.6,81.4 330.4,81.2 337.2,80.9 343.9,80.7 350.7,80.5 357.5,80.3 364.2,80.1 371.0,79.9 377.8,79.8 384.5,79.6 391.3,79.4 398.1,79.3 404.8,79.1 411.6,79.0 418.4,78.9 425.2,78.7 431.9,78.6 438.7,78.5 445.5,78.4 452.2,78.3 459.0,78.2 465.8,78.1 472.5,78.0 479.3,77.9 486.1,77.8 492.8,77.7 499.6,77.6 506.4,77.5 513.1,77.4 519.9,77.3 526.7,77.3 533.4,77.2 540.2,77.1 547.0,77.0 553.7,77.0 560.5,76.9 567.3,76.8 574.0,76.8 580.8,76.7 587.6,76.7 594.3,76.6 601.1,76.5 607.9,76.5 614.6,76.4 621.4,76.4 628.2,76.3 634.9,76.3 641.7,76.2 648.5,76.2 655.3,76.1 662.0,76.1 668.8,76.0 675.6,76.0 682.3,79.8 689.1,79.7 695.9,79.6 702.6,79.5 709.4,79.4 716.2,79.4 722.9,79.3 729.7,79.2 736.5,79.1 743.2,79.1 750.0,79.0" fill="none" stroke="#5b7db1" stroke-width="2.5"/>
<rect x="770.0" y="120.0" width="14.0" height="14.0" fill="#5b7db1"/>
<text x="790.0" y="132.0" text-anchor="start" font-family="Arial, sans-serif" font-size="10" font-weight="400" fill="#222">CoT zero-shot llama-3.3-70b-versatile n=100</text>
<polyline points="80.0,72.1 86.8,243.6 93.5,300.7 100.3,243.6 107.1,209.3 113.8,243.6 120.6,219.1 127.4,243.6 134.1,262.6 140.9,243.6 147.7,228.0 154.4,215.0 161.2,230.4 168.0,243.6 174.7,232.1 181.5,243.6 188.3,253.7 195.1,243.6 201.8,234.5 208.6,243.6 215.4,251.7 222.1,259.2 228.9,251.0 235.7,243.6 242.4,236.7 249.2,230.4 256.0,224.5 262.7,219.1 269.5,225.8 276.3,220.7 283.0,215.9 289.8,211.4 296.6,207.2 303.3,213.3 310.1,209.3 316.9,205.5 323.6,201.9 330.4,207.5 337.2,212.8 343.9,217.9 350.7,214.3 357.5,219.1 364.2,223.6 371.0,228.0 377.8,232.1 384.5,228.7 391.3,232.6 398.1,229.3 404.8,226.1 411.6,229.9 418.4,226.8 425.2,223.8 431.9,220.9 438.7,218.2 445.5,221.8 452.2,219.1 459.0,216.5 465.8,214.0 472.5,217.4 479.3,215.0 486.1,218.3 492.8,215.9 499.6,219.1 506.4,216.8 513.1,219.8 519.9,217.6 526.7,215.4 533.4,213.3 540.2,211.3 547.0,209.3 553.7,207.4 560.5,205.5 567.3,203.6 574.0,206.5 580.8,204.7 587.6,207.5 594.3,205.7 601.1,204.0 607.9,206.7 614.6,205.0 621.4,203.4 628.2,205.9 634.9,204.3 641.7,202.8 648.5,201.2 655.3,199.7 662.0,202.2 668.8,204.6 675.6,203.1 682.3,201.7 689.1,200.2 695.9,198.9 702.6,201.2 709.4,203.4 716.2,202.1 722.9,200.7 729.7,199.4 736.5,198.1 743.2,196.8 750.0,199.0" fill="none" stroke="#b65f3a" stroke-width="2.5"/>
<rect x="770.0" y="145.0" width="14.0" height="14.0" fill="#b65f3a"/>
<text x="790.0" y="157.0" text-anchor="start" font-family="Arial, sans-serif" font-size="10" font-weight="400" fill="#222">PoT few-shot llama-3.1-8b-instant n=100</text>
<polyline points="80.0,72.1 86.8,72.1 93.5,186.4 100.3,157.9 107.1,209.3 113.8,186.4 120.6,170.1 127.4,200.7 134.1,224.5 140.9,209.3 147.7,196.8 154.4,186.4 161.2,204.0 168.0,219.1 174.7,209.3 181.5,200.7 188.3,213.3 195.1,205.5 201.8,198.5 208.6,209.3 215.4,219.1 222.1,212.4 228.9,206.3 235.7,200.7 242.4,195.6 249.2,190.8 256.0,186.4 262.7,182.3 269.5,178.5 276.3,175.0 283.0,171.7 289.8,168.6 296.6,165.6 303.3,162.9 310.1,160.3 316.9,157.9 323.6,155.5 330.4,162.4 337.2,160.1 343.9,166.4 350.7,164.1 357.5,161.9 364.2,159.9 371.0,165.6 377.8,163.6 384.5,161.6 391.3,159.7 398.1,157.9 404.8,156.1 411.6,154.4 418.4,152.8 425.2,151.3 431.9,149.8 438.7,148.3 445.5,146.9 452.2,145.6 459.0,144.3 465.8,143.1 472.5,141.9 479.3,140.7 486.1,139.6 492.8,138.5 499.6,142.9 506.4,141.8 513.1,140.7 519.9,139.7 526.7,138.7 533.4,137.7 540.2,136.7 547.0,135.8 553.7,134.9 560.5,134.0 567.3,133.2 574.0,137.0 580.8,136.1 587.6,139.8 594.3,138.9 601.1,138.1 607.9,141.6 614.6,140.7 621.4,139.9 628.2,139.0 634.9,138.2 641.7,137.4 648.5,136.7 655.3,135.9 662.0,135.2 668.8,138.4 675.6,137.6 682.3,136.9 689.1,136.2 695.9,135.5 702.6,134.8 709.4,137.8 716.2,137.1 722.9,136.4 729.7,135.8 736.5,135.1 743.2,134.5 750.0,133.9" fill="none" stroke="#2f7f6f" stroke-width="2.5"/>
<rect x="770.0" y="170.0" width="14.0" height="14.0" fill="#2f7f6f"/>
<text x="790.0" y="182.0" text-anchor="start" font-family="Arial, sans-serif" font-size="10" font-weight="400" fill="#222">PoT zero-shot llama-3.1-8b-instant n=100</text>
<polyline points="80.0,72.1 86.8,72.1 93.5,72.1 100.3,72.1 107.1,72.1 113.8,72.1 120.6,72.1 127.4,72.1 134.1,72.1 140.9,72.1 147.7,72.1 154.4,72.1 161.2,72.1 168.0,96.6 174.7,95.0 181.5,93.6 188.3,92.3 195.1,91.2 201.8,90.2 208.6,89.3 215.4,88.5 222.1,87.7 228.9,87.0 235.7,86.4 242.4,85.9 249.2,85.3 256.0,84.8 262.7,84.4 269.5,84.0 276.3,83.6 283.0,83.2 289.8,82.9 296.6,82.5 303.3,82.2 310.1,81.9 316.9,81.7 323.6,81.4 330.4,81.2 337.2,80.9 343.9,80.7 350.7,80.5 357.5,80.3 364.2,80.1 371.0,79.9 377.8,79.8 384.5,79.6 391.3,86.7 398.1,86.4 404.8,86.1 411.6,85.9 418.4,85.6 425.2,85.3 431.9,85.1 438.7,84.8 445.5,90.8 452.2,90.5 459.0,90.2 465.8,89.9 472.5,89.6 479.3,89.3 486.1,89.0 492.8,88.7 499.6,88.5 506.4,88.2 513.1,88.0 519.9,87.7 526.7,87.5 533.4,87.3 540.2,87.0 547.0,86.8 553.7,86.6 560.5,86.4 567.3,86.2 574.0,86.0 580.8,85.9 587.6,85.7 594.3,90.0 601.1,89.7 607.9,89.5 614.6,89.3 621.4,89.1 628.2,88.9 634.9,88.7 641.7,88.5 648.5,88.3 655.3,88.1 662.0,87.9 668.8,91.6 675.6,91.4 682.3,95.0 689.1,94.7 695.9,94.5 702.6,94.3 709.4,94.0 716.2,93.8 722.9,93.6 729.7,93.4 736.5,93.1 743.2,92.9 750.0,92.7" fill="none" stroke="#2f7f6f" stroke-width="2.5"/>
<rect x="770.0" y="195.0" width="14.0" height="14.0" fill="#2f7f6f"/>
<text x="790.0" y="207.0" text-anchor="start" font-family="Arial, sans-serif" font-size="10" font-weight="400" fill="#222">PoT zero-shot llama-3.3-70b-versatile n=100</text>
<text x="415.0" y="470.0" text-anchor="middle" font-family="Arial, sans-serif" font-size="12" font-weight="400" fill="#222">Example index within run</text>
</svg>