<svg xmlns="http://www.w3.org/2000/svg" width="900" height="540" viewBox="0 0 900 540"><rect width="100%" height="100%" fill="white"/>
<text x="450.0" y="28.0" text-anchor="middle" font-family="Arial, sans-serif" font-size="18" font-weight="700" fill="#222">Project Results vs Paper Baselines</text>
<line x1="80" y1="415.0" x2="850" y2="415.0" stroke="#ddd"/>
<text x="70.0" y="419.0" text-anchor="end" font-family="Arial, sans-serif" font-size="10" font-weight="400" fill="#222">0</text>
<line x1="80" y1="346.4" x2="850" y2="346.4" stroke="#ddd"/>
<text x="70.0" y="350.4" text-anchor="end" font-family="Arial, sans-serif" font-size="10" font-weight="400" fill="#222">20</text>
<line x1="80" y1="277.9" x2="850" y2="277.9" stroke="#ddd"/>
<text x="70.0" y="281.9" text-anchor="end" font-family="Arial, sans-serif" font-size="10" font-weight="400" fill="#222">40</text>
<line x1="80" y1="209.3" x2="850" y2="209.3" stroke="#ddd"/>
<text x="70.0" y="213.3" text-anchor="end" font-family="Arial, sans-serif" font-size="10" font-weight="400" fill="#222">60</text>
<line x1="80" y1="140.7" x2="850" y2="140.7" stroke="#ddd"/>
<text x="70.0" y="144.7" text-anchor="end" font-family="Arial, sans-serif" font-size="10" font-weight="400" fill="#222">80</text>
<line x1="80" y1="72.1" x2="850" y2="72.1" stroke="#ddd"/>
<text x="70.0" y="76.1" text-anchor="end" font-family="Arial, sans-serif" font-size="10" font-weight="400" fill="#222">100</text>
<line x1="80" y1="55" x2="80" y2="415" stroke="#333"/>
<line x1="80" y1="415" x2="850" y2="415" stroke="#333"/>
<text x="18.0" y="235.0" text-anchor="middle" font-family="Arial, sans-serif" font-size="12" font-weight="400" fill="#222" transform="rotate(-90 18 235.0)">Accuracy (%)</text>
<rect x="107.4" y="79.0" width="32.0" height="336.0" fill="#5b7db1"/>
<text x="123.4" y="74.0" text-anchor="middle" font-family="Arial, sans-serif" font-size="10" font-weight="400" fill="#222">98.0</text>
<rect x="149.0" y="276.1" width="32.0" height="138.9" fill="#d08a35"/>
<text x="165.0" y="271.1" text-anchor="middle" font-family="Arial, sans-serif" font-size="10" font-weight="400" fill="#222">40.5</text>
<text x="144.2" y="437.0" text-anchor="middle" font-family="Arial, sans-serif" font-size="10" font-weight="400" fill="#222">GSM8K CoT</text>
<text x="144.2" y="450.0" text-anchor="middle" font-family="Arial, sans-serif" font-size="10" font-weight="400" fill="#222">zero-shot</text>
<rect x="235.7" y="127.0" width="32.0" height="288.0" fill="#88a758"/>
<text x="251.7" y="122.0" text-anchor="middle" font-family="Arial, sans-serif" font-size="10" font-weight="400" fill="#222">84.0</text>
<rect x="277.3" y="198.7" width="32.0" height="216.3" fill="#d08a35"/>
<text x="293.3" y="193.7" text-anchor="middle" font-family="Arial, sans-serif" font-size="10" font-weight="400" fill="#222">63.1</text>
<text x="272.5" y="437.0" text-anchor="middle" font-family="Arial, sans-serif" font-size="10" font-weight="400" fill="#222">GSM8K CoT few-shot</text>
<rect x="364.0" y="92.7" width="32.0" height="322.3" fill="#2f7f6f"/>
<text x="380.0" y="87.7" text-anchor="middle" font-family="Arial, sans-serif" font-size="10" font-weight="400" fill="#222">94.0</text>
<rect x="405.6" y="219.6" width="32.0" height="195.4" fill="#d08a35"/>
<text x="421.6" y="214.6" text-anchor="middle" font-family="Arial, sans-serif" font-size="10" font-weight="400" fill="#222">57.0</text>
<text x="400.8" y="437.0" text-anchor="middle" font-family="Arial, sans-serif" font-size="10" font-weight="400" fill="#222">GSM8K PoT</text>
<text x="400.8" y="450.0" text-anchor="middle" font-family="Arial, sans-serif" font-size="10" font-weight="400" fill="#222">zero-shot</text>
<rect x="492.4" y="199.0" width="32.0" height="216.0" fill="#b65f3a"/>
<text x="508.4" y="194.0" text-anchor="middle" font-family="Arial, sans-serif" font-size="10" font-weight="400" fill="#222">63.0</text>
<rect x="534.0" y="169.5" width="32.0" height="245.5" fill="#d08a35"/>
<text x="550.0" y="164.5" text-anchor="middle" font-family="Arial, sans-serif" font-size="10" font-weight="400" fill="#222">71.6</text>
<text x="529.2" y="437.0" text-anchor="middle" font-family="Arial, sans-serif" font-size="10" font-weight="400" fill="#222">GSM8K PoT few-shot</text>
<rect x="620.7" y="298.4" width="32.0" height="116.6" fill="#b65f3a"/>
<text x="636.7" y="293.4" text-anchor="middle" font-family="Arial, sans-serif" font-size="10" font-weight="400" fill="#222">34.0</text>
<rect x="662.3" y="229.5" width="32.0" height="185.5" fill="#d08a35"/>
<text x="678.3" y="224.5" text-anchor="middle" font-family="Arial, sans-serif" font-size="10" font-weight="400" fill="#222">54.1</text>
<text x="657.5" y="437.0" text-anchor="middle" font-family="Arial, sans-serif" font-size="10" font-weight="400" fill="#222">AQUA PoT few-shot</text>
<rect x="749.0" y="72.1" width="32.0" height="342.9" fill="#2f7f6f"/>
<text x="765.0" y="67.1" text-anchor="middle" font-family="Arial, sans-serif" font-size="10" font-weight="400" fill="#222">100.0</text>
<rect x="790.6" y="98.9" width="32.0" height="316.1" fill="#d08a35"/>
<text x="806.6" y="93.9" text-anchor="middle" font-family="Arial, sans-serif" font-size="10" font-weight="400" fill="#222">92.2</text>
<text x="785.8" y="437.0" text-anchor="middle" font-family="Arial, sans-serif" font-size="10" font-weight="400" fill="#222">MULTIARITH PoT</text>
<text x="785.8" y="450.0" text-anchor="middle" font-family="Arial, sans-serif" font-size="10" font-weight="400" fill="#222">zero-shot</text>
</svg>